<svg height="512" viewBox="0 0 60 61" width="512" xmlns="http://www.w3.org/2000/svg"><g id="006---Hole-Flag" fill="none"><g id="Icons" transform="translate(1)"><path id="Shape" d="m44 5.4v14.5c.0025296.2907122-.12158.5681337-.34.76-8.55 7.44-17.14-8.38-25.66-.3v-17c8.11-7.69 16.22 6.25 24.45 1.21.3063872-.20177911.6986641-.2195909 1.0220769-.04640861.3234127.1731823.5260316.50955125.5279231.87640861z" fill="#f44335"/><path id="Shape" d="m42.45 4.57c-.4599325.2844953-.9453622.52553622-1.45.72v14.61c.0025296.2907122-.12158.5681337-.34.76-1.05015.9568022-2.3386034 1.6131189-3.73 1.9 2.4187885.4976624 4.9285752-.2108955 6.73-1.9.21842-.1918663.3425296-.4692878.34-.76v-14.5c-.0018915-.36685736-.2045104-.70322631-.5279231-.87640861-.3234128-.17318229-.7156897-.1553705-1.0220769.04640861z" fill="#c81e1e"/><path id="Shape" d="m58 47.5v5c0 3.59-13 6.5-29 6.5h-1.51c-15.32-.19-27.49-3-27.49-6.5v-5z" fill="#783e22"/><path id="Shape" d="m55 47.5v5c0 3.5-12.17 6.31-27.49 6.5-15.34-.19-27.51-3-27.51-6.5v-5z" fill="#a0522d"/><path id="Shape" d="m58 47.5c0 3.59-13 6.5-29 6.5h-1.51c-15.32-.19-27.49-3-27.49-6.5 0-3.29 10.9-6 25.05-6.44h7.95c14.1.43 25 3.15 25 6.44z" fill="#549414"/><path id="Shape" d="m55 47.5c0 3.5-12.17 6.31-27.49 6.5-15.34-.19-27.51-3-27.51-6.5 0-3.29 10.9-6 25.05-6.44h4.95c14.1.43 25 3.15 25 6.44z" fill="#60a917"/><path id="Shape" d="m40 47.5c0 2.47-13.88 3.4-20 1.44-2.58-.84-2.44-1.83-.85-2.56.12 0 1.93-1.11 8-1.34h3.74c6.24.23 7.74 1.34 8 1.34.7.34 1.11.72 1.11 1.12z" fill="#007900"/><path id="Shape" d="m37 47.5c0 1.26-4.12 2.31-9.48 2.48-8.26-.27-12.24-2.47-7.52-3.91 2.5660339-.6877307 5.2135134-1.0241322 7.87-1 6.25.12 7.74 1.34 8 1.34.72.31 1.13.69 1.13 1.09z" fill="#008a00"/><circle id="Oval" cx="45" cy="37" fill="#f5f5f5" r="11"/><path id="Shape" d="m43.5 26.11c5.4208915.7724352 9.448259 5.414352 9.448259 10.89s-4.0273675 10.1175648-9.448259 10.89c4.2601443.6070377 8.4830754-1.3257997 10.8080271-4.9468387 2.3249518-3.621039 2.3249518-8.2652836 0-11.8863226-2.3249517-3.621039-6.5478828-5.5538764-10.8080271-4.9468387z" fill="#cfd8dc"/></g><g id="Layer_2" fill="#000" transform="translate(0 -1)"><path id="Shape" d="m56.05 44.54c3.0204923-4.614753 2.5064282-10.6941918-1.2460638-14.7362362-3.7524921-4.0420443-9.7770346-5.0057483-14.6031705-2.3359671-4.8261359 2.6697811-7.2109926 8.2854998-5.7807657 13.6122033-4.8091428-.1748284-9.6244411-.0612916-14.42.34v-19.61c7.74-6.71 16.35 8.4 25.32.61.43684-.3837326.6850592-.9385756.68-1.52v-14.5c-.001216-.73069458-.4008185-1.40256775-1.042293-1.75246289-.6414744-.34989514-1.4227067-.32211374-2.037707.07246289-7.48 4.66-15.87-9.32-24.61-1.09-.45.42-.31-1.45-.31 38-9.33.95-18 3.08-18 6.9v5c0 10 60 10 60 0v-5c0-1.53-1.3-2.86-3.95-3.99zm-12.05-38.14v14.51c-7.44 6.46-15.35-7-24-1.6v-14.51c7.38-6.41 15.33 7.01 24 1.6zm2 21.6c5.5228475 0 10 4.4771525 10 10s-4.4771525 10-10 10-10-4.4771525-10-10 4.4771525-10 10-10zm-6.16 20.5c-.84.59-4.25 1.5-9.84 1.5s-8.95-.91-9.84-1.5c.89-.59 4.25-1.5 9.84-1.5s9 .91 9.84 1.5zm-4.68-5.39c.3941765.8455558.8876516 1.6411584 1.47 2.37-4.56-.74-12.82-.72-16.63.88v-3c5.0435985-.3904577 10.1062695-.473945 15.16-.25zm-17.16.48v4.58c-.67 3.38 8.57 3.83 12 3.83 1.85 0 10.46-.15 11.81-2.77 4.5220715 1.7243636 9.6380174.5382865 12.94-3 2.37.87 3.25 1.77 3.25 2.27 0 2.24-10.91 5.5-28 5.5s-28-3.26-28-5.5c0-1.66 6-3.87 16-4.91zm12 15.41c-17.09 0-28-3.26-28-5.5v-2.09c9.18 6.08 46.82 6.08 56 0v2.09c0 2.24-10.91 5.5-28 5.5z"/><path id="Shape" d="m40 35c.5522847 0 1-.4477153 1-1s.4477153-1 1-1 1-.4477153 1-1-.4477153-1-1-1c-3 0-3.92 4-2 4z"/><path id="Shape" d="m45 34c.5522847 0 1-.4477153 1-1s.4477153-1 1-1 1-.4477153 1-1-.4477153-1-1-1c-3 0-3.92 4-2 4z"/><path id="Shape" d="m40 39c0-.5522847.4477153-1 1-1s1-.4477153 1-1c0-1.91-4-1-4 2 0 .5522847.4477153 1 1 1s1-.4477153 1-1z"/><path id="Shape" d="m43 40c-3 0-3.92 4-2 4 .5522847 0 1-.4477153 1-1s.4477153-1 1-1 1-.4477153 1-1-.4477153-1-1-1z"/><path id="Shape" d="m44 39c.5522847 0 1-.4477153 1-1s.4477153-1 1-1 1-.4477153 1-1-.4477153-1-1-1c-3 0-3.92 4-2 4z"/><path id="Shape" d="m49 36c.5522847 0 1-.4477153 1-1s.4477153-1 1-1 1-.4477153 1-1-.4477153-1-1-1c-3 0-3.92 4-2 4z"/></g></g></svg>