<svg height="512" viewBox="0 0 512 512" width="512" xmlns="http://www.w3.org/2000/svg"><path d="m152 224a7.989 7.989 0 0 0 -6.4 3.2l-69.6 92.8h-52a8 8 0 0 0 -6.4 12.8l48 64a7.989 7.989 0 0 0 6.4 3.2h400a8 8 0 0 0 7.762-6.062l16-64a8 8 0 0 0 -7.762-9.938h-17.754l-22.484-89.938a8 8 0 0 0 -7.762-6.062h-40v-56a8 8 0 0 0 -8-8h-48a8 8 0 0 0 -8 8v56h-48v-56a8 8 0 0 0 -8-8h-48a8 8 0 0 0 -8 8v56h-40v-16h16v-16h-48v16h16v16zm313.754 160h-389.754l-36-48h437.754zm-20-96h-5.754v16h9.754l4 16h-357.754l12-16h28v-16h-16l12-16h36v-16h-24l12-16h277.754zm-61.754-112v16h-32v-16zm-32 32h32v16h-32zm-80-32v16h-32v-16zm-32 32h32v16h-32z"/><path d="m152 288h16v16h-16z"/><path d="m184 288h16v16h-16z"/><path d="m216 288h16v16h-16z"/><path d="m248 288h16v16h-16z"/><path d="m280 288h16v16h-16z"/><path d="m312 288h16v16h-16z"/><path d="m344 288h16v16h-16z"/><path d="m376 288h16v16h-16z"/><path d="m408 288h16v16h-16z"/><path d="m184 256h16v16h-16z"/><path d="m216 256h16v16h-16z"/><path d="m248 256h16v16h-16z"/><path d="m280 256h16v16h-16z"/><path d="m312 256h16v16h-16z"/><path d="m344 256h16v16h-16z"/><path d="m376 256h16v16h-16z"/><path d="m408 256h16v16h-16z"/><path d="m88 352h16v16h-16z"/><path d="m120 352h16v16h-16z"/><path d="m152 352h16v16h-16z"/><path d="m184 352h16v16h-16z"/><path d="m312 352h16v16h-16z"/><path d="m344 352h16v16h-16z"/><path d="m408 352h16v16h-16z"/><path d="m440 352h16v16h-16z"/><path d="m248 352h16v16h-16z"/><path d="m280 352h16v16h-16z"/></svg>