<svg xmlns="http://www.w3.org/2000/svg" height="506pt" version="1.1" viewBox="-30 1 506 506.667" width="506pt">
<g id="surface1">
<path d="M 169.859375 115.066406 C 169.859375 116.582031 171.269531 121.789062 175.714844 121.789062 C 179.402344 121.710938 182.875 123.5 184.933594 126.558594 C 187.015625 129.542969 187.460938 133.371094 186.125 136.753906 C 185.03125 139.878906 185.03125 143.285156 186.125 146.40625 C 186.125 146.40625 187.210938 148.578125 191.113281 149.660156 L 192.308594 149.660156 C 198.597656 149.660156 208.359375 135.019531 213.238281 121.898438 C 213.488281 121.367188 213.769531 120.855469 214.105469 120.378906 L 214.648438 119.402344 C 215.363281 118.394531 216.242188 117.515625 217.25 116.800781 L 217.792969 116.800781 C 218.671875 116.269531 219.625 115.867188 220.613281 115.609375 L 225.277344 115.609375 C 226.382812 115.867188 227.445312 116.3125 228.421875 116.910156 C 229.472656 117.613281 230.386719 118.492188 231.132812 119.511719 L 231.132812 120.378906 C 231.511719 120.890625 231.835938 121.433594 232.109375 122.007812 C 237.097656 135.347656 246.75 149.660156 252.929688 149.660156 L 254.125 149.660156 C 258.136719 148.578125 258.894531 146.949219 259.113281 146.410156 C 260.21875 143.253906 260.21875 139.804688 259.113281 136.648438 C 257.777344 133.265625 258.222656 129.4375 260.304688 126.453125 C 262.375 123.472656 265.792969 121.726562 269.414062 121.789062 C 273.96875 121.789062 275.164062 116.585938 275.378906 114.957031 L 275.378906 113.65625 C 275.519531 112.941406 275.519531 112.203125 275.378906 111.488281 C 275.378906 111.488281 272.777344 109.316406 262.042969 109.316406 C 254.277344 109.445312 246.542969 110.316406 238.941406 111.917969 C 233.097656 113.230469 227.292969 109.546875 225.992188 103.699219 C 225.375 100.945312 225.863281 98.050781 227.339844 95.652344 C 235.6875 81.988281 241.871094 64.417969 239.917969 60.296875 C 238.867188 59.949219 237.769531 59.734375 236.664062 59.648438 C 234.0625 59.648438 232.109375 64.527344 232.109375 64.527344 C 230.59375 68.867188 226.515625 71.773438 221.914062 71.792969 C 217.382812 71.804688 213.304688 68.996094 211.722656 64.742188 C 211.722656 64.742188 209.769531 59.753906 207.167969 59.753906 C 205.875 59.851562 204.617188 60.222656 203.480469 60.839844 C 201.851562 64.636719 208.035156 82.53125 216.382812 95.761719 C 219.355469 100.957031 217.554688 107.582031 212.347656 110.554688 C 210.355469 111.691406 208.042969 112.167969 205.757812 111.921875 C 198.152344 110.335938 190.421875 109.460938 182.65625 109.316406 C 178.070312 108.753906 173.429688 109.589844 169.316406 111.703125 C 169.316406 111.703125 169.316406 112.464844 169.316406 113.65625 C 169.535156 114.109375 169.707031 114.585938 169.859375 115.066406 Z M 169.859375 115.066406 " style=" stroke:none;fill-rule:nonzero;fill:rgb(100%,100%,100%);fill-opacity:1;" />
<path d="M 175.605469 278.28125 L 175.605469 255.941406 C 175.605469 247.371094 182.546875 240.429688 191.117188 240.429688 L 254.558594 240.429688 C 263.125 240.429688 270.066406 247.371094 270.066406 255.941406 L 270.066406 278.28125 L 395.757812 278.28125 L 404.761719 85.78125 C 404.761719 15.398438 346.304688 9.867188 328.847656 9.867188 L 117.371094 9.867188 C 99.476562 9.867188 41.457031 15.398438 41.457031 86.757812 L 50.457031 278.171875 Z M 175.605469 278.28125 " style=" stroke:none;fill-rule:nonzero;fill:rgb(34.117647%,73.333333%,38.823529%);fill-opacity:1;" />
<path d="M 419.078125 433.363281 L 373.746094 433.363281 C 382.171875 433.429688 389.078125 426.707031 389.253906 418.289062 L 393.046875 337.820312 L 270.175781 337.820312 L 270.175781 360.160156 C 270.175781 368.726562 263.234375 375.667969 254.667969 375.667969 L 191.117188 375.667969 C 182.550781 375.667969 175.609375 368.726562 175.609375 360.160156 L 175.609375 337.820312 L 52.734375 337.820312 L 56.421875 417.3125 C 56.183594 425.933594 62.972656 433.113281 71.59375 433.351562 C 71.703125 433.351562 71.8125 433.351562 71.929688 433.363281 L 26.707031 433.363281 C 18.140625 433.363281 11.199219 440.304688 11.199219 448.871094 L 11.199219 480.648438 C 11.199219 489.214844 18.140625 496.15625 26.707031 496.15625 L 419.078125 496.15625 C 427.644531 496.15625 434.585938 489.214844 434.585938 480.648438 L 434.585938 449.195312 C 434.769531 440.628906 427.96875 433.546875 419.402344 433.363281 C 419.292969 433.363281 419.183594 433.363281 419.078125 433.363281 Z M 419.078125 433.363281 " style=" stroke:none;fill-rule:nonzero;fill:rgb(34.117647%,73.333333%,38.823529%);fill-opacity:1;" />
<path d="M 191.875 160.722656 C 190.488281 160.734375 189.097656 160.546875 187.753906 160.179688 C 182.734375 159.074219 178.460938 155.820312 176.042969 151.285156 C 173.710938 145.367188 173.710938 138.769531 176.042969 132.851562 C 167.191406 132.503906 159.992188 125.617188 159.230469 116.800781 L 159.230469 115.933594 L 154.894531 109.640625 L 162.703125 103.351562 C 168.722656 99.601562 175.8125 97.929688 182.875 98.578125 C 191.398438 98.722656 199.898438 99.664062 208.25 101.398438 C 208.25 101.398438 188.945312 69.515625 194.800781 56.394531 L 196.429688 52.816406 L 199.898438 51.078125 C 202.535156 49.667969 205.472656 48.890625 208.46875 48.800781 C 215.253906 49.386719 220.992188 54.082031 222.890625 60.621094 C 225.070312 54.074219 230.882812 49.410156 237.75 48.691406 C 239.808594 48.757812 241.859375 49.128906 243.820312 49.777344 L 248.484375 51.078125 L 250.871094 55.417969 C 257.484375 68.867188 238.722656 99.882812 237.855469 101.183594 C 246.238281 99.371094 254.773438 98.386719 263.34375 98.253906 C 267.832031 98.15625 272.3125 98.632812 276.679688 99.664062 C 285.140625 101.941406 287.527344 106.714844 287.527344 110.511719 C 287.625 112.40625 287.40625 114.316406 286.875 116.148438 C 286.269531 125.019531 279.054688 131.992188 270.175781 132.308594 C 272.398438 138.328125 272.398438 144.941406 270.175781 150.960938 C 267.734375 155.515625 263.40625 158.769531 258.355469 159.855469 C 257.007812 160.222656 255.621094 160.40625 254.234375 160.398438 C 236.882812 160.398438 224.84375 129.921875 223.214844 125.800781 C 221.699219 129.054688 209.335938 160.722656 191.875 160.722656 Z M 191.875 160.722656 " style=" stroke:none;fill-rule:nonzero;fill:rgb(100%,100%,100%);fill-opacity:1;" />
<path d="M 270.175781 278.28125 L 270.175781 255.941406 C 270.175781 247.371094 263.234375 240.429688 254.667969 240.429688 L 191.117188 240.429688 C 182.550781 240.429688 175.609375 247.371094 175.609375 255.941406 L 175.609375 278.28125 L 49.914062 278.28125 L 52.734375 337.820312 L 175.605469 337.820312 L 175.605469 360.160156 C 175.605469 368.726562 182.546875 375.667969 191.117188 375.667969 L 254.558594 375.667969 C 263.125 375.667969 270.066406 368.726562 270.066406 360.160156 L 270.066406 337.820312 L 393.046875 337.820312 L 395.867188 278.28125 Z M 270.175781 278.28125 " style=" stroke:none;fill-rule:nonzero;fill:rgb(99.607843%,81.176471%,21.568627%);fill-opacity:1;" />
<path d="M 163.351562 140.550781 C 162.898438 145.832031 163.839844 151.136719 166.0625 155.949219 C 169.804688 163.378906 176.628906 168.769531 184.71875 170.699219 C 187.015625 171.339844 189.378906 171.675781 191.765625 171.675781 C 198.980469 171.457031 205.875 168.648438 211.179688 163.757812 C 212.308594 174.441406 216.027344 184.675781 222.023438 193.582031 C 228.8125 202.972656 239.246094 209.078125 250.765625 210.390625 L 252.171875 210.390625 C 258.160156 210.78125 263.332031 206.238281 263.722656 200.25 C 264.113281 194.265625 259.570312 189.09375 253.582031 188.703125 C 247.964844 188.214844 242.847656 185.273438 239.59375 180.675781 C 236.003906 175.15625 233.738281 168.886719 232.976562 162.347656 C 238.496094 167.933594 245.949219 171.199219 253.800781 171.457031 C 256.1875 171.457031 258.550781 171.121094 260.851562 170.484375 C 269.058594 168.488281 275.945312 162.914062 279.613281 155.300781 C 281.824219 150.519531 282.757812 145.257812 282.324219 140.007812 C 290.28125 135.378906 295.726562 127.40625 297.179688 118.320312 C 299.261719 111.453125 297.972656 104.015625 293.710938 98.253906 C 285.78125 90.035156 274.460938 86.023438 263.128906 87.410156 L 256.730469 87.410156 C 261.878906 77.117188 263.660156 65.472656 261.824219 54.117188 C 260.285156 48.347656 256.339844 43.53125 250.980469 40.886719 C 242.054688 36.046875 231.15625 36.722656 222.890625 42.621094 C 214.640625 36.773438 203.785156 36.148438 194.914062 40.992188 C 189.554688 43.640625 185.609375 48.453125 184.066406 54.226562 C 182.234375 65.578125 184.015625 77.226562 189.164062 87.519531 L 182.65625 87.519531 C 171.324219 86.109375 159.992188 90.132812 152.074219 98.363281 C 147.8125 104.121094 146.523438 111.5625 148.605469 118.425781 C 149.871094 127.667969 155.304688 135.820312 163.351562 140.550781 Z M 182.550781 109.425781 C 190.3125 109.566406 198.046875 110.445312 205.648438 112.027344 C 211.492188 113.339844 217.296875 109.652344 218.597656 103.808594 C 219.214844 101.050781 218.726562 98.15625 217.25 95.761719 C 208.902344 82.09375 202.609375 64.636719 204.347656 60.839844 C 205.484375 60.21875 206.742188 59.851562 208.035156 59.753906 C 210.636719 59.753906 212.589844 64.632812 212.589844 64.742188 C 214.171875 68.992188 218.25 71.800781 222.785156 71.792969 C 227.382812 71.769531 231.460938 68.863281 232.976562 64.527344 C 232.976562 64.527344 234.929688 59.644531 237.53125 59.644531 C 238.640625 59.734375 239.734375 59.949219 240.785156 60.296875 C 242.847656 64.417969 236.664062 81.988281 228.207031 95.652344 C 225.027344 100.726562 226.578125 107.417969 231.664062 110.59375 C 234.160156 112.15625 237.175781 112.632812 240.027344 111.917969 C 247.628906 110.3125 255.363281 109.445312 263.125 109.316406 C 273.972656 109.316406 276.574219 111.484375 276.464844 111.484375 C 276.605469 112.199219 276.605469 112.9375 276.464844 113.652344 L 276.464844 114.957031 C 276.464844 116.582031 275.054688 121.789062 270.5 121.789062 C 266.878906 121.722656 263.460938 123.46875 261.390625 126.453125 C 259.308594 129.433594 258.863281 133.261719 260.195312 136.644531 C 261.304688 139.800781 261.304688 143.25 260.195312 146.40625 C 260.195312 146.40625 259.113281 148.574219 255.207031 149.660156 L 254.015625 149.660156 C 247.726562 149.660156 238.183594 135.34375 233.191406 122.003906 C 232.921875 121.429688 232.597656 120.886719 232.21875 120.378906 L 232.21875 119.511719 C 231.46875 118.492188 230.558594 117.613281 229.507812 116.90625 C 228.53125 116.3125 227.46875 115.867188 226.363281 115.605469 L 221.699219 115.605469 C 220.710938 115.867188 219.757812 116.269531 218.878906 116.800781 L 218.335938 116.800781 C 217.328125 117.515625 216.449219 118.394531 215.734375 119.402344 L 215.191406 120.378906 C 214.855469 120.855469 214.570312 121.363281 214.324219 121.894531 C 209.441406 135.019531 199.683594 149.660156 193.390625 149.660156 L 192.199219 149.660156 C 188.1875 148.574219 187.425781 146.949219 187.210938 146.40625 C 186.117188 143.28125 186.117188 139.878906 187.210938 136.753906 C 188.542969 133.371094 188.101562 129.542969 186.019531 126.558594 C 183.957031 123.5 180.488281 121.710938 176.800781 121.785156 C 172.355469 121.785156 171.160156 116.582031 170.945312 115.0625 C 170.976562 114.597656 170.976562 114.121094 170.945312 113.652344 C 170.945312 112.460938 170.945312 111.808594 170.945312 111.699219 C 174.566406 109.890625 178.613281 109.066406 182.65625 109.316406 Z M 182.550781 109.425781 " style=" stroke:none;fill-rule:nonzero;fill:rgb(20.784314%,21.960784%,26.666667%);fill-opacity:1;" />
<path d="M 0.355469 448.871094 L 0.355469 480.648438 C 0.40625 495.179688 12.175781 506.945312 26.707031 507 L 419.078125 507 C 433.609375 506.945312 445.375 495.179688 445.429688 480.648438 L 445.429688 449.195312 C 445.375 434.664062 433.609375 422.898438 419.078125 422.84375 L 399.664062 422.84375 C 399.78125 421.433594 399.78125 420.023438 399.664062 418.613281 L 403.460938 338.6875 L 406.28125 279.148438 L 415.28125 86.761719 C 415.28125 22.449219 370.164062 0 328.519531 0 L 117.371094 0 C 75.183594 0 30.613281 22.882812 30.613281 87.734375 L 39.613281 279.691406 L 42.433594 339.230469 L 46.121094 418.722656 C 45.980469 420.273438 45.980469 421.835938 46.121094 423.386719 L 26.707031 423.386719 C 12.511719 423.429688 0.875 434.6875 0.355469 448.871094 Z M 117.371094 20.824219 L 328.414062 20.824219 C 348.152344 20.824219 393.484375 27.222656 393.484375 85.894531 L 385.566406 267.4375 L 281.019531 267.4375 L 281.019531 255.941406 C 280.964844 241.40625 269.199219 229.640625 254.667969 229.585938 L 191.117188 229.585938 C 176.585938 229.640625 164.816406 241.40625 164.761719 255.941406 L 164.761719 267.4375 L 60.21875 267.4375 L 51.757812 86.324219 C 51.867188 27.222656 97.632812 20.824219 117.371094 20.824219 Z M 164.761719 348.664062 L 164.761719 360.160156 C 164.816406 374.691406 176.585938 386.460938 191.117188 386.511719 L 254.558594 386.511719 C 269.09375 386.460938 280.859375 374.691406 280.914062 360.160156 L 280.914062 348.664062 L 381.554688 348.664062 L 378.300781 417.855469 C 378.300781 420.425781 376.207031 422.519531 373.636719 422.519531 L 72.039062 422.519531 C 69.347656 422.410156 67.257812 420.132812 67.363281 417.433594 C 67.363281 417.390625 67.363281 417.34375 67.375 417.3125 L 64.121094 348.664062 Z M 63.144531 326.972656 L 61.410156 289.125 L 164.871094 289.125 L 164.871094 326.972656 Z M 186.5625 360.160156 L 186.5625 255.941406 C 186.5625 253.371094 188.65625 251.277344 191.226562 251.277344 L 254.667969 251.277344 C 257.238281 251.277344 259.332031 253.371094 259.332031 255.941406 L 259.332031 360.160156 C 259.332031 362.730469 257.238281 364.824219 254.667969 364.824219 L 191.117188 364.824219 C 188.546875 364.824219 186.453125 362.730469 186.453125 360.160156 Z M 281.019531 326.972656 L 281.019531 289.125 L 384.480469 289.125 L 382.746094 326.972656 Z M 72.039062 444.207031 L 419.078125 444.207031 C 421.648438 444.207031 423.738281 446.300781 423.738281 448.871094 L 423.738281 480.648438 C 423.738281 483.21875 421.644531 485.3125 419.078125 485.3125 L 26.707031 485.3125 C 24.136719 485.3125 22.042969 483.21875 22.042969 480.648438 L 22.042969 449.195312 C 22.042969 446.625 24.136719 444.535156 26.707031 444.535156 Z M 72.039062 444.207031 " style=" stroke:none;fill-rule:nonzero;fill:rgb(20.784314%,21.960784%,26.666667%);fill-opacity:1;" />
</g>
</svg>