<svg height="511pt" viewBox="1 -103 511.999 511" width="511pt" xmlns="http://www.w3.org/2000/svg"><path d="m47.695312 10.5c-20.816406 0-37.695312 16.875-37.695312 37.695312v209.277344c0 20.820313 16.878906 37.695313 37.695312 37.695313h57.761719v-284.667969zm0 0" fill="#baf0ff"/><path d="m464.304688 10.5h-57.761719v284.667969h57.761719c20.820312 0 37.695312-16.875 37.695312-37.695313v-209.277344c0-20.820312-16.878906-37.695312-37.695312-37.695312zm0 0" fill="#f4858a"/><path d="m305.335938 10.5h-199.878907v284.667969h301.085938v-284.667969" fill="#b9b9bd"/><path d="m351.328125 20.496094c-.648437 0-1.296875-.0625-1.949219-.191406-.640625-.128907-1.269531-.320313-1.867187-.570313-.601563-.25-1.183594-.558594-1.730469-.917969-.542969-.363281-1.050781-.78125-1.519531-1.242187-.460938-.460938-.871094-.980469-1.242188-1.519531-.359375-.550782-.667969-1.128907-.917969-1.730469-.25-.601563-.441406-1.230469-.570312-1.871094-.132812-.648437-.203125-1.296875-.203125-1.957031 0-.652344.070313-1.300782.203125-1.953125.128906-.636719.320312-1.269531.570312-1.867188.25-.601562.558594-1.179687.917969-1.730469.371094-.539062.78125-1.050781 1.242188-1.519531.46875-.460937.976562-.871093 1.519531-1.242187.546875-.359375 1.128906-.667969 1.730469-.917969.597656-.25 1.226562-.441406 1.867187-.570313 1.292969-.261718 2.621094-.261718 3.910156 0 .640626.128907 1.269532.320313 1.871094.570313.601563.25 1.179688.558594 1.730469.917969.539063.371094 1.058594.78125 1.519531 1.242187.460938.46875.878906.980469 1.238282 1.519531.363281.550782.671874 1.128907.921874 1.730469.25.597657.441407 1.230469.570313 1.867188.128906.652343.1875 1.300781.1875 1.953125 0 .660156-.058594 1.308594-.1875 1.957031-.128906.640625-.320313 1.269531-.570313 1.871094-.25.601562-.558593 1.179687-.921874 1.730469-.359376.539062-.777344 1.058593-1.238282 1.519531-.460937.460937-.980468.878906-1.519531 1.242187-.550781.359375-1.128906.667969-1.730469.917969-.601562.25-1.230468.441406-1.871094.570313-.648437.128906-1.300781.191406-1.960937.191406zm0 0"/><path d="m145.457031 50.5h221.085938v204.667969h-221.085938zm0 0" fill="#fff"/><path d="m366.542969 265.167969h-221.085938c-5.523437 0-10-4.476563-10-10v-204.667969c0-5.523438 4.476563-10 10-10h221.085938c5.523437 0 10 4.476562 10 10v204.667969c0 5.523437-4.476563 10-10 10zm-211.085938-20h201.085938v-184.667969h-201.085938zm0 0"/><path d="m77.667969 226.585938c0 11.011718-8.929688 19.9375-19.941407 19.9375-11.011718 0-19.9375-8.925782-19.9375-19.9375 0-11.011719 8.925782-19.941407 19.9375-19.941407 11.011719 0 19.941407 8.929688 19.941407 19.941407zm0 0" fill="#f4858a"/><path d="m57.726562 256.523438c-16.507812 0-29.9375-13.429688-29.9375-29.9375 0-16.511719 13.429688-29.941407 29.9375-29.941407 16.507813 0 29.9375 13.433594 29.9375 29.941407 0 16.507812-13.429687 29.9375-29.9375 29.9375zm0-39.878907c-5.480468 0-9.9375 4.457031-9.9375 9.941407 0 5.480468 4.457032 9.9375 9.9375 9.9375 5.480469 0 9.9375-4.457032 9.9375-9.9375 0-5.480469-4.457031-9.941407-9.9375-9.941407zm0 0"/><path d="m474.210938 226.585938c0 11.011718-8.925782 19.9375-19.9375 19.9375-11.011719 0-19.941407-8.925782-19.941407-19.9375 0-11.011719 8.929688-19.941407 19.941407-19.941407 11.011718 0 19.9375 8.929688 19.9375 19.941407zm0 0" fill="#baf0ff"/><path d="m454.273438 256.523438c-16.507813 0-29.941407-13.429688-29.941407-29.9375 0-16.511719 13.429688-29.941407 29.941407-29.941407 16.507812 0 29.9375 13.433594 29.9375 29.941407 0 16.507812-13.429688 29.9375-29.9375 29.9375zm0-39.878907c-5.480469 0-9.941407 4.457031-9.941407 9.941407 0 5.480468 4.457031 9.9375 9.941407 9.9375 5.480468 0 9.9375-4.457032 9.9375-9.9375 0-5.480469-4.457032-9.941407-9.9375-9.941407zm0 0"/><path d="m464.304688.5h-57.761719c-5.523438 0-10 4.476562-10 10v274.667969h-281.085938v-264.667969h189.878907c5.523437 0 10-4.476562 10-10s-4.476563-10-10-10h-257.640626c-26.300781 0-47.695312 21.394531-47.695312 47.695312v209.277344c0 26.300782 21.394531 47.695313 47.695312 47.695313h416.609376c26.296874 0 47.695312-21.394531 47.695312-47.695313v-209.277344c0-26.300781-21.394531-47.695312-47.695312-47.695312zm-444.304688 256.972656v-209.277344c0-15.269531 12.425781-27.695312 27.695312-27.695312h47.761719v264.671875h-47.761719c-15.269531-.003906-27.695312-12.425781-27.695312-27.699219zm472 0c0 15.273438-12.425781 27.695313-27.695312 27.695313h-47.761719v-264.667969h47.761719c15.269531 0 27.695312 12.421875 27.695312 27.695312zm0 0"/><path d="m75.820312 67.238281h-8.09375v-8.089843c0-5.523438-4.476562-10-10-10-5.523437 0-10 4.476562-10 10v8.089843h-8.089843c-5.523438 0-10 4.476563-10 10 0 5.523438 4.476562 10 10 10h8.089843v8.089844c0 5.523437 4.476563 10 10 10 5.523438 0 10-4.476563 10-10v-8.089844h8.09375c5.523438 0 10-4.476562 10-10 0-5.523437-4.476562-10-10-10zm0 0"/><path d="m472.363281 67.238281h-8.089843v-8.089843c0-5.523438-4.476563-10-10-10-5.523438 0-10 4.476562-10 10v8.089843h-8.09375c-5.523438 0-10 4.476563-10 10 0 5.523438 4.476562 10 10 10h8.09375v8.089844c0 5.523437 4.476562 10 10 10 5.523437 0 10-4.476563 10-10v-8.089844h8.089843c5.523438 0 10-4.476562 10-10 0-5.523437-4.476562-10-10-10zm0 0"/></svg>