<?xml version="1.0" encoding="iso-8859-1"?>
<!-- Generator: Adobe Illustrator 21.0.0, SVG Export Plug-In . SVG Version: 6.00 Build 0)  -->
<svg xmlns="http://www.w3.org/2000/svg" xmlns:xlink="http://www.w3.org/1999/xlink" version="1.1" id="Capa_1" x="0px" y="0px" viewBox="0 0 511.598 511.598" style="enable-background:new 0 0 511.598 511.598;" xml:space="preserve" width="512" height="512">
<g>
	<path d="M345.082,297.895c-6.705,0-12.159,5.455-12.159,12.16c0,6.705,5.454,12.159,12.159,12.159s12.16-5.455,12.16-12.159   C357.242,303.35,351.787,297.895,345.082,297.895z"/>
	<path d="M414.814,322.214c6.705,0,12.159-5.455,12.159-12.159c0-6.705-5.454-12.16-12.159-12.16c-6.705,0-12.16,5.455-12.16,12.16   C402.654,316.759,408.109,322.214,414.814,322.214z"/>
	<path d="M96.783,297.895c-6.705,0-12.159,5.455-12.159,12.16c0,6.705,5.454,12.159,12.159,12.159c6.705,0,12.16-5.455,12.16-12.159   C108.943,303.35,103.488,297.895,96.783,297.895z"/>
	<path d="M166.516,322.214c6.705,0,12.159-5.455,12.159-12.159c0-6.705-5.454-12.16-12.159-12.16c-6.705,0-12.16,5.455-12.16,12.16   C154.355,316.759,159.811,322.214,166.516,322.214z"/>
	<path d="M474.206,411.691c10.161-7.528,18.22-20.823,24.031-39.712c1.219-3.959-1.004-8.156-4.963-9.374   c-3.952-1.215-8.155,1.003-9.373,4.963c-3.811,12.387-10.469,27.656-21.12,33.688c-12.706-10.314-27.362-18.315-43.324-23.347   c30.94-14.799,52.364-46.41,52.364-82.934v-15.173c0-3.652-2.63-6.773-6.229-7.392c-37.126-6.383-62.82-44.06-63.07-44.432   c-1.542-2.307-4.224-3.573-6.992-3.295c-2.761,0.28-5.142,2.062-6.188,4.632c-0.176,0.43-18.389,42.987-93.769,42.987   c-4.143,0-7.5,3.358-7.5,7.5v15.173c0,36.524,21.425,68.135,52.365,82.934c-15.959,5.032-30.611,13.03-43.316,23.341   c-5.932-3.359-11.224-9.914-15.765-19.574c-17.839-37.949-17.846-113.102-5.341-145.726c8.104-21.141,22.235-39.097,40.864-51.925   c18.638-12.835,40.446-19.618,63.067-19.618c22.621,0,44.43,6.784,63.067,19.618c18.629,12.829,32.76,30.784,40.864,51.925   c8.657,22.585,11.281,67.057,6.103,103.445c-0.584,4.101,2.267,7.899,6.368,8.482c4.09,0.579,7.898-2.268,8.482-6.369   c5.581-39.215,2.659-85.867-6.947-110.927c-9.194-23.984-25.227-44.355-46.363-58.91c-21.15-14.565-45.9-22.264-71.574-22.264   s-50.424,7.699-71.574,22.264c-21.137,14.555-37.169,34.926-46.363,58.91c-13.801,36.002-13.848,115.74,5.771,157.476   c4.959,10.549,10.96,18.452,17.917,23.626c-13.178,13.524-23.476,29.861-29.901,48.017c-13.741-38.835-45.211-69.36-84.64-81.791   c15.725-7.522,28.988-19.387,38.234-34.032c3.83,1.975,8.109,3.04,12.494,3.04c15.079,0,27.347-12.268,27.347-27.347   c0-5.839-1.846-11.252-4.975-15.699c11.147-32.416,19.429-76.095,0.038-108.149c-10.871-17.969-28.934-29.52-50.861-32.524   c-15.594-2.137-28.348,2.025-35.499,5.29c-10.429-12.417-22.3-19.081-46.92-19.081c-20.193,0-52.196,8.024-75.93,30.637   c-2.999,2.857-3.113,7.604-0.256,10.604c2.857,2.998,7.604,3.113,10.604,0.256c20.526-19.558,48.157-26.497,65.582-26.497   c23.792,0,30.552,6.839,38.857,18.104c2.37,3.215,6.878,3.984,10.209,1.781c0.132-0.088,13.382-8.686,31.317-6.232   c17.353,2.377,31.581,11.408,40.062,25.427c12.628,20.875,12.682,52.065,0.259,90.573c-2.569-0.994-5.323-1.612-8.197-1.783   v-12.474c0-3.652-2.63-6.773-6.23-7.392c-37.126-6.383-62.82-44.06-63.07-44.432c-1.541-2.307-4.224-3.573-6.992-3.295   c-2.761,0.28-5.142,2.062-6.189,4.632c-0.176,0.43-18.389,42.987-93.767,42.987c-4.143,0-7.5,3.358-7.5,7.5v12.474   c-3.096,0.184-6.055,0.884-8.792,2.018c-11.969-31.645-12.566-58.991-1.737-81.378c1.805-3.729,0.244-8.214-3.484-10.018   c-3.729-1.805-8.216-0.243-10.018,3.485c-13.246,27.38-12.22,60.287,3.029,97.863c-2.97,4.374-4.707,9.649-4.707,15.323   c0,15.079,12.268,27.347,27.347,27.347c4.386,0,8.664-1.066,12.494-3.04c9.245,14.645,22.509,26.511,38.234,34.032   C38.792,394.728,0,444.666,0,503.498v0.296c0,4.142,3.357,7.5,7.5,7.5h248.299h248.299c4.143,0,7.5-3.358,7.5-7.5v-0.296   C511.598,467.824,497.328,435.425,474.206,411.691z M379.948,386.848c7.52,0,14.875,0.721,22.003,2.087   c-3.728,8.547-12.265,14.421-22.003,14.421c-9.737,0-18.275-5.874-22.003-14.421C365.074,387.569,372.428,386.848,379.948,386.848z    M303.073,294.974v-7.806c56.892-2.037,83.319-27.061,93.989-41.73c10.322,12.264,31.443,33.274,59.76,40.432v9.104   c0,42.389-34.485,76.874-76.874,76.874S303.073,337.363,303.073,294.974z M131.649,386.848c7.52,0,14.875,0.721,22.003,2.087   c-3.728,8.547-12.265,14.421-22.003,14.421s-18.275-5.874-22.003-14.421C116.775,387.569,124.129,386.848,131.649,386.848z    M221.887,331.917c-1.943,0-3.834-0.481-5.54-1.348c3.094-7.335,5.258-15.153,6.353-23.306c6.429,0.422,11.534,5.772,11.534,12.307   C234.233,326.378,228.694,331.917,221.887,331.917z M41.412,331.917c-6.808,0-12.347-5.539-12.347-12.347   c0-6.534,5.106-11.885,11.534-12.307c1.095,8.153,3.259,15.971,6.353,23.306C45.246,331.435,43.355,331.917,41.412,331.917z    M54.963,300.069c-0.002-0.029-0.004-0.058-0.006-0.086c-0.107-1.658-0.181-3.324-0.181-5.009v-7.806   c56.891-2.037,83.318-27.061,93.988-41.73c10.322,12.264,31.443,33.274,59.76,40.432v9.104c0,1.685-0.074,3.351-0.181,5.009   c-0.003,0.029-0.004,0.057-0.007,0.086c-2.634,40.02-36.012,71.779-76.687,71.779S57.597,340.089,54.963,300.069z M15.22,496.294   c2.961-48.379,35.547-88.877,79.799-103.549c5.51,15.064,19.997,25.612,36.631,25.612c16.633,0,31.121-10.548,36.631-25.612   c44.251,14.673,76.837,55.171,79.799,103.549H15.22z M263.518,496.294c2.961-48.379,35.547-88.877,79.799-103.549   c5.51,15.064,19.998,25.612,36.631,25.612c16.634,0,31.121-10.548,36.631-25.612c44.251,14.673,76.837,55.171,79.799,103.549   H263.518z"/>
	<path d="M206.178,112.053c3.023-2.83,3.18-7.577,0.35-10.601c-17.084-18.248-24.52-36.459-22.104-54.125   c3.657-26.733,22.858-31.2,30.943-31.88c15.326-1.289,29.629,6.513,33.274,18.147c0.98,3.128,3.879,5.257,7.157,5.257   c3.278,0,6.177-2.129,7.157-5.257c3.646-11.634,17.944-19.438,33.274-18.147c8.085,0.68,27.286,5.146,30.943,31.88   c6.306,46.096-56.2,82.791-71.384,90.975c-5.244-2.813-16.113-9.009-27.867-17.867c-3.308-2.493-8.011-1.831-10.503,1.476   c-2.493,3.308-1.832,8.011,1.476,10.503c17.511,13.196,32.975,20.768,33.624,21.084c2.052,0.998,4.507,0.998,6.559,0   c0.922-0.448,22.815-11.184,44.007-29.438c29.102-25.068,42.57-52.305,38.95-78.766C337.847,14.676,316.276,2.08,297.486,0.5   c-16.731-1.408-32.38,4.879-41.688,15.786C246.492,5.379,230.848-0.912,214.111,0.5c-18.79,1.58-40.36,14.176-44.549,44.794   c-3.06,22.359,5.693,44.703,26.014,66.409C198.405,114.727,203.15,114.884,206.178,112.053z"/>
</g>















</svg>
