<svg id="Layer_1" enable-background="new 0 0 128 128" height="512" viewBox="0 0 128 128" width="512" xmlns="http://www.w3.org/2000/svg"><path d="m112.307 42.009c-.481.271-.652.88-.381 1.362.184.326.522.51.872.51.166 0 .334-.041.489-.128 4.613-2.595 5.582-5.26 5.582-7.039 0-1.075-.338-2.134-1.004-3.147-.304-.461-.922-.589-1.386-.286-.461.303-.589.923-.286 1.385.448.682.676 1.371.676 2.049 0 2.254-2.481 4.123-4.562 5.294z" fill="#e6e7e8"/><path d="m121.865 35.566c-.304-.462-.922-.589-1.386-.286-.461.303-.589.923-.286 1.385.448.682.676 1.371.676 2.049 0 2.255-2.481 4.125-4.563 5.295-.481.271-.652.88-.381 1.362.184.326.522.51.872.51.166 0 .334-.041.489-.128 4.613-2.595 5.582-5.26 5.582-7.039.001-1.076-.337-2.135-1.003-3.148z" fill="#e6e7e8"/><path d="m18.713 88.086c.155.087.323.128.489.128.35 0 .689-.184.873-.51.271-.481.1-1.091-.382-1.362-2.081-1.17-4.563-3.039-4.563-5.295 0-.677.228-1.366.676-2.049.303-.461.175-1.081-.287-1.385-.46-.303-1.081-.175-1.385.287-.666 1.014-1.004 2.072-1.004 3.146.001 1.78.97 4.445 5.583 7.04z" fill="#e6e7e8"/><path d="m15.693 88.342c-2.081-1.17-4.563-3.039-4.563-5.295 0-.677.228-1.366.676-2.049.303-.461.175-1.081-.287-1.385-.459-.303-1.081-.176-1.385.287-.666 1.014-1.004 2.072-1.004 3.146 0 1.779.969 4.444 5.582 7.039.155.087.323.128.489.128.35 0 .689-.184.873-.51.272-.481.101-1.09-.381-1.361z" fill="#e6e7e8"/><path d="m90.426 95.064c.469-1.455.514-2.814.046-4.023l-.001-.001c-1.616-4.154-8.452-5.709-18.811-4.332v-13.465c13.49-7.295 20.869-15.388 18.812-20.7 0 0-.001-.001-.001-.001-1.616-4.154-8.452-5.709-18.811-4.332v-1.235c1.145.036 2.303.059 3.47.059 21.723 0 38.739-5.851 38.739-13.32 0-7.475-17.017-13.33-38.739-13.33-1.167 0-2.325.023-3.47.059v-5.829c0-1.724-.675-3.355-1.903-4.597-1.227-1.227-2.863-1.903-4.607-1.903-3.584 0-6.5 2.916-6.5 6.5v7.009c-13.747 2.147-22.26 6.746-22.26 12.091 0 5.339 8.513 9.935 22.26 12.082v5.244c-3.01.883-6.071 1.921-9.112 3.103-17.748 6.894-34.304 18.674-31.29 26.453 1.251 3.211 5.745 4.791 12.211 4.791 7.435 0 17.48-2.095 28.19-6.2v10.35c-3.014.885-6.075 1.923-9.112 3.103-6.128 2.381-12.113 5.345-17.201 8.525h-7.248c-3.388 0-6.144 2.756-6.144 6.144 0 1.486.531 2.849 1.412 3.913-2.139 2.825-3.016 5.531-2.108 7.873 1.251 3.211 5.745 4.791 12.211 4.791 6.702 0 15.525-1.702 25.043-5.044 1.285.251 2.609.487 4 .69 3.507.521 7.248.861 11.116 1.01 1.462.061 2.979.091 4.512.091 21.723 0 38.739-5.851 38.739-13.319 0-6.07-10.429-10.361-23.443-12.25zm-18.766-68.667c1.172-.033 2.322-.054 3.47-.054 21.873 0 31.87 5.715 32.749 7.369-.887 1.652-10.898 7.361-32.749 7.361-1.149 0-2.299-.021-3.47-.053zm14.745 74.769c.191-.2.38-.399.559-.598 1.543.172 2.995.373 4.358.598zm-11.275-1.222c1.293 0 2.542.021 3.753.059-.468.378-.965.765-1.499 1.162h-5.724v-1.168c1.181-.032 2.332-.053 3.47-.053zm-48.936 13.508h14.375c1.243.848 2.746 1.642 4.49 2.372-12.885 3.311-20.115 2.056-21.228 1.095.07-.569.803-1.804 2.363-3.467zm42.171 0h22.954c-4.432.732-9.801 1.222-16.189 1.222-1.458 0-2.95-.026-4.433-.079-1.43-.055-2.824-.145-4.198-.251.626-.295 1.252-.589 1.866-.892zm16.523-20.243c-.036.235-.212.635-.545 1.163-3.031-.255-6.13-.387-9.213-.387-1.16 0-2.318.034-3.47.07v-1.365c8.228-1.169 12.467-.087 13.228.519zm0-38.499c-.175 1.135-3.446 5.95-13.228 11.735v-12.254c8.228-1.168 12.467-.087 13.228.519zm-26.239-14.908c-10.993-1.859-15.698-5.12-16.267-6.09.563-.971 5.26-4.236 16.267-6.097zm0 32.976c-.535.219-1.07.438-1.622.653-20.388 7.923-31.774 6.214-33.197 4.99.229-1.863 7.495-10.813 27.862-18.727 2.342-.912 4.669-1.715 6.957-2.437z" fill="#e6e7e8"/><path d="m28.589 23.86 2.103-.086c.115.007.169.036.219.104l1.263 1.682c.433.578 1.098.905 1.8.905.14 0 .281-.013.422-.04.853-.159 1.527-.776 1.762-1.612l.567-2.024c.023-.083.085-.149.166-.177l1.99-.681c.82-.28 1.399-.989 1.511-1.848.111-.859-.268-1.691-.989-2.171l-1.751-1.166c-.071-.048-.115-.127-.116-.212l-.032-2.104c-.013-.866-.508-1.635-1.29-2.007s-1.691-.269-2.371.269l-1.65 1.305c-.068.053-.155.07-.238.044l-2.011-.619c-.824-.254-1.711-.022-2.307.607s-.778 1.526-.477 2.338l.731 1.974c.03.08.019.169-.03.239l-1.212 1.721c-.498.708-.55 1.621-.135 2.382.413.761 1.187 1.215 2.075 1.177z" fill="#e6e7e8"/><path d="m92.504 81.102c-.498.709-.55 1.622-.135 2.383.416.761 1.189 1.205 2.076 1.175l2.102-.086c.083-.003.168.035.22.104l1.263 1.682c.434.578 1.098.905 1.801.905.14 0 .28-.014.422-.04.852-.159 1.526-.776 1.761-1.611l.567-2.024c.023-.083.085-.149.166-.177l1.99-.681c.82-.28 1.398-.988 1.511-1.848.111-.859-.268-1.691-.989-2.172l-1.752-1.166c-.07-.048-.114-.128-.115-.213l-.032-2.103c-.013-.866-.508-1.636-1.29-2.007-.786-.373-1.693-.269-2.371.269l-1.65 1.305c-.067.054-.153.071-.238.045l-2.01-.619c-.832-.256-1.714-.022-2.309.607s-.777 1.526-.476 2.338l.731 1.974c.03.08.019.169-.03.239z" fill="#e6e7e8"/><path d="m66.655 98.166v-87.557c0-1.52-.62-2.89-1.61-3.89-.66-.66-1.48-1.15-2.4-1.4-.48-.14-.98-.21-1.5-.21-3.04 0-5.5 2.46-5.5 5.5v87.557z" fill="#fff"/><path d="m66.655 98.166v-87.557c0-1.52-.62-2.89-1.61-3.89-.66-.66-1.48-1.15-2.4-1.4-2.31.65-4 2.77-4 5.29v87.557z" fill="#fa759e"/><path d="m71.13 17.383c-1.51 0-3 .03-4.47.09v3.95c1.43-.05 2.92-.08 4.47-.08 23.25 0 33.78 6.42 33.78 8.37 0 1.94-10.53 8.36-33.78 8.36-1.55 0-3.04-.03-4.47-.08-4.13-.16-7.79-.52-11.01-1.01-12.5-1.92-18.3-5.83-18.3-7.27 0-1.45 5.8-5.36 18.3-7.28v-3.96c-13.12 1.92-22.26 6.23-22.26 11.24 0 5 9.14 9.31 22.26 11.23 3.43.51 7.13.85 11.01 1 1.47.06 2.96.09 4.47.09 20.85 0 37.74-5.52 37.74-12.32 0-6.81-16.89-12.33-37.74-12.33z" fill="#0089ef"/><path d="m101.218 98.166h-80.13c-2.84 0-5.143 2.303-5.143 5.143s2.303 5.143 5.143 5.143h80.13c2.84 0 5.143-2.303 5.143-5.143s-2.303-5.143-5.143-5.143z" fill="#fa759e"/><path d="m85.54 48.903c-1.53-3.93-8.89-5.05-18.88-3.55v3.97c9.5-1.48 14.73-.16 15.19 1.01.54 1.38-3.66 7.36-15.19 13.85-3.12 1.75-6.77 3.53-11.01 5.27-.73.31-1.49.61-2.26.91-21.67 8.42-33.81 6.25-34.52 4.43-.7-1.81 6.79-11.61 28.46-20.03 2.95-1.15 5.73-2.1 8.32-2.88v-4.1c-3.15.9-6.43 2-9.75 3.29-19.43 7.55-33.18 18.81-30.72 25.16 2.47 6.34 20.22 5.37 39.64-2.18.28-.11.56-.22.83-.33 3.95-1.56 7.65-3.28 11.01-5.07 12.839-6.839 20.8-14.789 18.88-19.75z" fill="#ffd7e5"/><path d="m85.54 87.402c-1.53-3.93-8.89-5.05-18.88-3.55v3.97c9.5-1.48 14.73-.16 15.19 1.01.54 1.38-3.66 7.36-15.19 13.85-3.12 1.75-6.77 3.53-11.01 5.27-.73.31-1.49.61-2.26.91-21.67 8.42-33.81 6.25-34.52 4.43-.7-1.81 6.79-11.61 28.46-20.03 2.95-1.15 5.73-2.1 8.32-2.88v-4.1c-3.15.9-6.43 2-9.75 3.29-19.43 7.55-33.18 18.81-30.72 25.16 2.47 6.34 20.22 5.37 39.64-2.18.28-.11.56-.22.83-.33 3.95-1.56 7.65-3.28 11.01-5.07 12.839-6.84 20.8-14.79 18.88-19.75z" fill="#d4fbff"/><path d="m71.13 90.984c-1.51 0-3 .03-4.47.09v3.95c1.43-.05 2.92-.08 4.47-.08 23.25 0 33.78 6.42 33.78 8.37 0 1.94-10.53 8.36-33.78 8.36-1.55 0-3.04-.03-4.47-.08-4.13-.16-7.79-.52-11.01-1.01-12.5-1.92-18.3-5.83-18.3-7.27 0-1.45 5.8-5.36 18.3-7.28v-3.96c-13.12 1.92-22.26 6.23-22.26 11.24 0 5 9.14 9.31 22.26 11.23 3.43.51 7.13.85 11.01 1 1.47.06 2.96.09 4.47.09 20.85 0 37.74-5.52 37.74-12.32 0-6.81-16.89-12.33-37.74-12.33z" fill="#6dc9f7"/><path d="m32.502 10.446.032 2.104c.006.415.216.8.562 1.029l1.751 1.166c.869.579.698 1.903-.29 2.241l-1.991.681c-.392.134-.694.453-.805.852l-.568 2.026c-.282 1.005-1.594 1.251-2.221.416l-1.263-1.683c-.249-.332-.645-.52-1.059-.503l-2.102.086c-1.043.043-1.683-1.129-1.082-1.984l1.21-1.721c.239-.339.295-.774.151-1.163l-.731-1.973c-.363-.979.554-1.949 1.552-1.642l2.011.619c.396.122.827.041 1.152-.216l1.65-1.305c.819-.647 2.025-.075 2.041.97z" fill="#ffd7e5"/><path d="m98.359 71.246.032 2.104c.006.415.216.8.562 1.029l1.751 1.166c.869.579.698 1.903-.29 2.241l-1.991.681c-.392.134-.694.453-.805.852l-.568 2.026c-.282 1.005-1.594 1.251-2.221.416l-1.263-1.683c-.249-.332-.645-.52-1.059-.503l-2.102.086c-1.043.043-1.683-1.129-1.082-1.984l1.21-1.721c.239-.339.295-.774.151-1.163l-.731-1.973c-.363-.979.554-1.949 1.552-1.642l2.011.619c.396.122.827.041 1.152-.216l1.65-1.305c.818-.646 2.025-.074 2.041.97z" fill="#ffd7e5"/><g fill="#3a2c60"><path d="m66.66 32.994c.553 0 1-.448 1-1v-4.625c0-.552-.447-1-1-1s-1 .448-1 1v4.625c0 .553.447 1 1 1z"/><path d="m108.308 38.009c-.481.271-.652.881-.381 1.362.184.327.522.51.872.51.166 0 .334-.042.489-.128 4.613-2.596 5.582-5.261 5.582-7.039 0-1.074-.338-2.133-1.005-3.147-.303-.461-.922-.589-1.386-.286-.461.303-.589.923-.286 1.385.449.683.677 1.372.677 2.049 0 2.253-2.481 4.123-4.562 5.294z"/><path d="m117.865 31.566c-.303-.462-.922-.589-1.386-.286-.461.303-.589.923-.286 1.385.449.683.677 1.372.677 2.049 0 2.255-2.481 4.124-4.563 5.295-.481.271-.652.881-.381 1.362.184.327.522.51.872.51.166 0 .334-.042.489-.128 4.613-2.596 5.582-5.261 5.582-7.039.001-1.075-.337-2.134-1.004-3.148z"/><path d="m14.713 84.086c.155.087.323.128.489.128.35 0 .689-.184.873-.51.271-.481.1-1.091-.382-1.362-2.081-1.17-4.563-3.039-4.563-5.295 0-.677.228-1.365.677-2.049.303-.461.175-1.081-.287-1.385-.46-.303-1.08-.175-1.385.287-.667 1.015-1.005 2.073-1.005 3.146.001 1.78.97 4.445 5.583 7.04z"/><path d="m11.693 84.342c-2.081-1.17-4.563-3.039-4.563-5.295 0-.677.228-1.365.677-2.049.303-.461.175-1.081-.287-1.385-.46-.303-1.08-.176-1.384.287-.667 1.015-1.005 2.073-1.005 3.146 0 1.779.969 4.444 5.582 7.039.155.087.323.128.489.128.35 0 .689-.184.873-.51.271-.481.1-1.09-.382-1.361z"/><path d="m86.423 91.064c.475-1.456.518-2.814.05-4.023 0 0-.001-.001-.001-.002-1.617-4.153-8.456-5.702-18.812-4.328v-13.468c13.49-7.294 20.869-15.387 18.813-20.7 0-.001-.001-.001-.001-.002-1.617-4.155-8.455-5.708-18.812-4.331v-1.236c1.144.036 2.303.059 3.47.059 21.724 0 38.74-5.851 38.74-13.32 0-8.344-19.697-13.33-38.74-13.33-1.167 0-2.325.023-3.47.059v-5.829c0-1.725-.675-3.356-1.903-4.597-1.227-1.227-2.863-1.903-4.607-1.903-3.584 0-6.5 2.916-6.5 6.5v7.009c-13.747 2.147-22.26 6.746-22.26 12.091 0 5.339 8.513 9.935 22.26 12.082v5.244c-3.013.884-6.073 1.922-9.112 3.103-17.746 6.896-34.303 18.677-31.289 26.455 1.251 3.211 5.744 4.791 12.21 4.791 7.436 0 17.48-2.095 28.191-6.201v10.35c-3.017.886-6.077 1.923-9.112 3.103-6.128 2.381-12.114 5.345-17.201 8.525h-7.248c-3.387 0-6.143 2.756-6.143 6.144 0 1.484.538 2.84 1.419 3.902-2.145 2.829-3.025 5.539-2.116 7.885 1.251 3.211 5.745 4.791 12.211 4.791 6.693 0 15.508-1.718 25.011-5.05 1.295.254 2.629.491 4.032.696 3.499.521 7.24.86 11.117 1.01 1.461.061 2.979.091 4.511.091 21.724 0 38.74-5.851 38.74-13.319-.001-6.072-10.432-10.363-23.448-12.251zm-1.815-3.299c.34.879.27 1.906-.146 3.035-.655-.081-1.314-.157-1.979-.226.395-.857.505-1.577.297-2.109-.84-2.134-7.244-2.873-15.12-1.8v-1.947c9.255-1.264 15.715-.119 16.948 3.047zm-20.265 21.687h22.977c-4.432.732-9.802 1.222-16.19 1.222-1.447 0-2.939-.026-4.431-.078-1.441-.056-2.844-.146-4.228-.254.628-.294 1.256-.587 1.872-.89zm31.531-2h-27.671c4.954-2.72 9.049-5.543 12.125-8.286h15.543c5.011 1.595 7.582 3.347 8.008 4.147-.428.799-3 2.547-8.005 4.139zm-13.464-10.286c.191-.2.371-.399.551-.598 1.544.172 2.998.373 4.361.598zm-16.22 9.103c-2.462 1.312-5.051 2.54-7.717 3.687-.909-.109-1.801-.229-2.673-.361-.375-.058-.723-.121-1.084-.182.447-.178.888-.356 1.312-.537 4.033-1.655 7.774-3.445 11.121-5.323 4.472-2.517 8.052-5.086 10.669-7.417.902.052 1.786.112 2.638.184-3.248 3.21-8.149 6.691-14.266 9.949zm-43.989 3.183h14.368c1.239.846 2.737 1.638 4.475 2.366-12.864 3.3-20.101 2.059-21.212 1.102.069-.569.811-1.807 2.369-3.468zm2.064-2c2.029-1.799 4.827-3.893 8.519-6.098-.258.64-.394 1.294-.394 1.96 0 1.445.64 2.834 1.822 4.138zm41.395-10.286h-9.011v-22.773c3.107-1.248 6.125-2.625 9.011-4.102zm-19.269 2h24.133c-1.3.855-2.744 1.739-4.353 2.645-3.274 1.837-6.942 3.592-10.913 5.222-.336.143-.695.28-1.042.42h-7.829c-5.18-1.658-7.605-3.461-8.004-4.14.394-.68 2.816-2.486 8.008-4.147zm26.99-2h-5.721v-1.168c1.18-.033 2.331-.054 3.47-.054 1.292 0 2.54.021 3.75.059-.467.378-.967.766-1.499 1.163zm-5.721-8.476c8.231-1.168 12.468-.086 13.228.519-.036.234-.223.639-.552 1.162-3.029-.254-6.125-.387-9.206-.387-1.161 0-2.318.034-3.47.07zm-13.011-19.911c-.535.219-1.07.438-1.622.654-20.393 7.924-31.777 6.212-33.196 4.989.229-1.862 7.493-10.812 27.862-18.727 2.34-.912 4.667-1.714 6.956-2.437zm2-16.895v-4.1-5.698c2.876.39 5.895.661 9.011.807v2.46 3.97 14.263c-2.755 1.52-5.778 2.978-9.011 4.354zm11.011-1.693c8.232-1.169 12.467-.087 13.228.519-.175 1.135-3.447 5.95-13.228 11.735zm-11.011-39.578c0-2.481 2.019-4.5 4.5-4.5 1.21 0 2.344.468 3.189 1.313.853.86 1.321 1.992 1.321 3.187v6.86 3.95 2.283c0 .552.447 1 1 1s1-.448 1-1v-1.309c1.18-.033 2.331-.054 3.47-.054 21.873 0 31.871 5.715 32.75 7.369-.887 1.652-10.898 7.361-32.75 7.361-1.133 0-2.299-.021-3.47-.054v-1.428c0-.552-.447-1-1-1s-1 .448-1 1v1.349c-3.156-.151-6.177-.43-9.011-.83v-13.677-3.96-7.86zm-2 25.189c-10.993-1.859-15.698-5.12-16.267-6.09.563-.97 5.26-4.235 16.267-6.097zm-20.259-6.088c0-4.13 8.092-8.129 20.26-10.076v1.942c-11.328 1.869-18.3 5.634-18.3 8.134 0 2.557 7.32 6.442 19.149 8.259 3.455.525 7.197.869 11.126 1.021 1.522.053 3.038.081 4.505.081 22.504 0 34.78-6.183 34.78-9.36 0-3.18-12.276-9.37-34.78-9.37-1.143 0-2.286.016-3.47.048v-1.954c1.142-.036 2.305-.054 3.47-.054 21.978 0 36.74 5.858 36.74 11.33 0 5.467-14.763 11.32-36.74 11.32-1.493 0-2.983-.03-4.431-.089-3.803-.147-7.471-.48-10.905-.99-12.803-1.875-21.404-5.991-21.404-10.242zm20.067 43.408c-20.478 7.959-36.361 7.848-38.345 2.75-1.976-5.1 9.667-15.907 30.149-23.866 2.796-1.086 5.612-2.056 8.388-2.888v2.025c-2.52.778-5.1 1.682-7.682 2.688-20.969 8.147-30.177 18.36-29.029 21.326 1.155 2.964 14.845 4.286 35.814-3.861.78-.305 1.549-.608 2.276-.917 4.029-1.653 7.771-3.444 11.121-5.324 10.9-6.136 16.601-12.608 15.63-15.087-.84-2.135-7.244-2.872-15.12-1.801v-1.947c9.252-1.269 15.714-.12 16.947 3.045 1.644 4.245-5.93 11.854-18.416 18.505-3.447 1.836-7.117 3.526-10.92 5.027-.223.092-.453.182-.685.272zm-37.512 30.187c0-2.285 1.858-4.144 4.143-4.144h4.216c-3.063 2.128-5.67 4.315-7.618 6.462-.459-.661-.741-1.453-.741-2.318zm-.833 11.062c-1.977-5.101 9.667-15.908 30.149-23.867 2.793-1.085 5.608-2.054 8.388-2.887v2.025c-2.519.777-5.1 1.681-7.682 2.688-1.821.707-3.547 1.431-5.191 2.163-1.331.524-2.522 1.086-3.589 1.678-14.755 7.254-21.223 14.97-20.25 17.483.969 2.489 10.788 3.798 26.304-.653 1.095.356 2.254.69 3.48 1.001-17.142 5.483-29.846 4.892-31.609.369zm55.018.263c-1.505 0-2.995-.03-4.432-.089-3.807-.146-7.475-.479-10.904-.99-12.803-1.874-21.404-5.989-21.404-10.24 0-4.13 8.092-8.129 20.26-10.075v1.941c-11.328 1.868-18.3 5.634-18.3 8.134 0 2.557 7.32 6.441 19.149 8.258 3.452.525 7.194.869 11.126 1.021 1.519.054 3.034.08 4.505.08 22.504 0 34.78-6.183 34.78-9.359 0-3.181-12.276-9.37-34.78-9.37-1.143 0-2.286.016-3.47.049v-1.954c1.148-.036 2.312-.055 3.47-.055 21.978 0 36.74 5.858 36.74 11.33 0 5.466-14.763 11.319-36.74 11.319z"/><path d="m24.59 19.86 2.102-.086c.125.007.168.036.219.104l1.263 1.683c.433.578 1.098.905 1.8.905.14 0 .281-.013.422-.04.853-.159 1.527-.776 1.762-1.612l.567-2.024c.023-.083.085-.149.166-.177l1.99-.681c.82-.28 1.399-.989 1.511-1.848.111-.859-.268-1.691-.988-2.171l-1.753-1.167c-.07-.047-.113-.125-.114-.212l-.033-2.103c-.013-.866-.508-1.635-1.29-2.007s-1.691-.269-2.371.269l-1.649 1.305c-.067.054-.158.07-.238.045l-2.011-.62c-.827-.256-1.713-.022-2.309.608-.595.63-.777 1.525-.476 2.337l.731 1.974c.03.08.019.169-.031.239l-1.209 1.721c-.499.708-.552 1.621-.137 2.382.413.76 1.188 1.214 2.076 1.176zm-.305-2.408 1.21-1.721c.428-.609.528-1.389.27-2.085l-.731-1.973c-.046-.125.004-.215.055-.269s.141-.111.266-.07l2.011.62c.71.221 1.484.075 2.067-.388l1.649-1.305c.106-.083.208-.062.273-.031.066.031.146.097.147.23l.033 2.102c.011.745.388 1.436 1.007 1.848l1.752 1.166c.11.074.122.176.113.25-.01.073-.048.169-.174.212l-1.99.681c-.703.241-1.243.812-1.445 1.529l-.567 2.025c-.036.129-.13.172-.203.186-.071.012-.175.007-.255-.099l-1.263-1.684c-.429-.57-1.099-.903-1.807-.903-.031 0-.063 0-.094.002l-2.102.086c-.128-.007-.204-.07-.239-.135-.035-.064-.06-.164.017-.274z"/><path d="m88.504 77.102c-.498.709-.55 1.622-.135 2.383.416.761 1.193 1.205 2.076 1.175l2.102-.086c.087-.003.168.035.22.104l1.263 1.682c.434.578 1.098.905 1.801.905.14 0 .28-.014.422-.04.852-.159 1.526-.776 1.761-1.611l.567-2.024c.023-.083.085-.149.166-.177l1.99-.681c.82-.28 1.398-.988 1.511-1.848.111-.859-.268-1.691-.989-2.172l-1.752-1.166c-.07-.048-.114-.128-.115-.213l-.032-2.103c-.013-.866-.507-1.636-1.289-2.007-.784-.372-1.691-.271-2.372.269l-1.65 1.305c-.066.054-.153.071-.238.045l-2.01-.619c-.832-.256-1.714-.022-2.309.607s-.777 1.526-.476 2.338l.731 1.974c.03.08.019.169-.03.239zm1.636 1.151 1.212-1.721c.428-.609.528-1.39.27-2.086l-.731-1.973c-.046-.125.004-.215.055-.269s.136-.112.266-.069l2.011.619c.71.218 1.483.073 2.066-.388l1.65-1.306c.105-.083.207-.063.273-.03.066.031.146.097.147.229v.001l.032 2.104c.013.743.389 1.434 1.008 1.845l1.751 1.166c.111.074.124.177.114.25s-.048.17-.174.213l-1.989.681c-.704.239-1.244.811-1.446 1.529l-.567 2.024c-.036.129-.13.172-.202.186-.074.017-.176.007-.256-.1l-1.263-1.682c-.428-.57-1.099-.904-1.81-.904-.03 0-.061.001-.091.002l-2.103.086c-.129-.009-.203-.07-.238-.135-.035-.063-.062-.163.015-.272z"/></g></svg>